<?xml version="1.0" standalone="no"?>
<!DOCTYPE svg PUBLIC "-//W3C//DTD SVG 20010904//EN"
 "http://www.w3.org/TR/2001/REC-SVG-20010904/DTD/svg10.dtd">
<svg version="1.0" xmlns="http://www.w3.org/2000/svg"
 width="1123.000000pt" height="1123.000000pt" viewBox="0 0 1123.000000 1123.000000"
 preserveAspectRatio="xMidYMid meet">
<metadata>
Created by potrace 1.11, written by Peter Selinger 2001-2013
</metadata>
<g transform="translate(0.000000,1123.000000) scale(0.100000,-0.100000)"
fill="#000000" stroke="none">
<path d="M8709 10599 c-68 -111 -133 -216 -144 -234 -11 -18 -50 -82 -86 -141
-37 -60 -137 -223 -223 -362 -86 -139 -156 -255 -156 -258 0 -3 -5 -10 -11
-17 -6 -7 -60 -93 -121 -192 -129 -208 -145 -252 -117 -327 9 -26 24 -55 33
-63 22 -22 20 -28 -6 -19 -82 26 -160 -7 -218 -92 -16 -25 -30 -47 -30 -49 0
-3 -17 -31 -37 -62 -21 -32 -42 -66 -48 -76 -51 -88 -160 -263 -167 -265 -4
-2 -8 -7 -8 -11 0 -10 -15 -34 -432 -710 -26 -42 -61 -101 -79 -131 -18 -30
-36 -56 -41 -58 -4 -2 -8 -7 -8 -12 0 -4 -18 -37 -39 -71 -22 -35 -63 -102
-91 -149 -28 -47 -64 -104 -78 -127 -15 -24 -47 -75 -71 -115 -24 -40 -83
-136 -131 -213 -48 -77 -131 -212 -185 -300 -53 -88 -108 -176 -120 -195 -20
-31 -68 -109 -276 -450 -32 -52 -63 -100 -69 -107 -5 -7 -10 -14 -10 -17 0 -5
-62 -108 -70 -116 -3 -3 -32 -50 -65 -105 -33 -55 -63 -101 -67 -103 -5 -2 -8
-7 -8 -12 0 -4 -18 -37 -40 -71 -21 -35 -53 -88 -70 -117 -60 -100 -300 -487
-310 -499 -5 -7 -10 -14 -10 -17 0 -5 -62 -108 -70 -116 -6 -6 -23 -34 -50
-80 -11 -19 -30 -51 -42 -71 -13 -20 -45 -74 -73 -118 -27 -45 -57 -93 -65
-106 -8 -13 -35 -58 -60 -99 -25 -42 -48 -76 -52 -76 -5 0 -8 -4 -8 -10 0 -5
-30 -58 -66 -117 -37 -59 -83 -135 -103 -168 -20 -33 -39 -62 -43 -63 -5 -2
-8 -8 -8 -12 0 -8 -40 -77 -70 -120 -11 -16 -32 -49 -89 -147 -19 -32 -38 -60
-43 -61 -4 -2 -8 -7 -8 -12 0 -4 -17 -35 -37 -69 -335 -542 -307 -496 -329
-538 -10 -18 -21 -33 -26 -33 -4 0 -8 -5 -8 -11 0 -6 -13 -31 -30 -56 -16 -24
-30 -46 -30 -48 0 -3 -17 -31 -37 -62 -43 -66 -46 -71 -92 -150 -19 -32 -38
-60 -41 -63 -4 -3 -9 -12 -13 -20 -3 -8 -47 -80 -96 -160 -49 -80 -116 -188
-148 -240 -120 -197 -163 -265 -173 -277 -5 -7 -10 -14 -10 -17 0 -5 -62 -108
-70 -116 -3 -3 -32 -50 -65 -105 -33 -55 -63 -101 -67 -103 -5 -2 -8 -7 -8
-12 0 -4 -18 -37 -40 -71 -63 -101 -72 -123 -70 -184 3 -122 118 -204 240
-173 55 14 94 56 166 176 32 53 62 99 66 100 5 2 8 8 8 12 0 5 43 77 95 161
52 83 95 155 95 160 0 5 4 9 9 9 5 0 12 11 15 25 4 14 11 25 16 25 6 0 10 5
10 11 0 5 19 40 43 77 24 37 82 129 128 205 46 76 92 150 101 165 10 15 21 34
25 42 4 8 11 20 15 25 18 21 208 336 208 345 0 4 3 10 8 12 4 2 41 58 82 126
41 67 89 146 107 175 17 28 37 57 42 64 6 7 11 14 11 17 0 3 63 107 140 231
77 125 140 231 140 236 0 5 5 9 10 9 6 0 10 4 10 10 0 9 69 123 90 147 5 7 10
15 10 18 0 4 14 26 30 50 17 24 30 47 30 50 0 4 15 30 34 58 19 29 107 171
196 317 89 146 172 281 184 300 40 62 101 161 220 355 63 105 120 195 126 202
5 7 10 14 10 16 0 2 41 70 90 150 50 81 90 151 90 157 0 5 4 10 9 10 5 0 16
15 25 33 9 17 46 79 81 136 36 57 65 107 65 111 0 4 9 15 20 25 11 10 20 22
20 26 0 5 19 39 43 76 24 38 46 75 50 83 4 8 25 42 47 75 22 33 49 78 61 100
12 22 25 42 28 45 3 3 15 22 26 43 11 20 23 37 27 37 5 0 8 4 8 9 0 10 60 112
71 121 3 3 8 10 10 15 6 17 222 369 230 375 3 3 12 16 19 30 14 27 187 312
225 370 66 102 215 351 215 360 0 5 4 10 9 10 5 0 16 15 25 33 9 17 39 67 66
110 28 43 50 83 50 88 0 5 5 9 10 9 6 0 10 4 10 10 0 9 69 123 90 147 5 7 10
14 10 17 0 2 52 88 115 191 63 103 115 191 115 195 0 5 3 10 8 12 4 2 22 28
41 58 18 30 81 133 140 228 58 95 111 180 116 190 32 55 90 148 94 152 7 6 23
33 57 98 31 58 27 136 -10 192 l-26 39 30 -5 c44 -9 115 4 141 26 12 11 25 20
28 20 4 0 26 33 51 73 24 39 48 74 52 75 4 2 8 8 8 14 0 5 14 29 30 53 17 24
30 46 30 50 0 3 18 34 41 67 22 34 49 79 60 100 22 44 31 49 25 13 -3 -13 0
-27 5 -31 5 -3 7 -10 4 -15 -5 -7 -9 -1434 -4 -1464 1 -5 1 -14 0 -19 -3 -12
-2 -447 0 -461 1 -5 1 -14 0 -19 -3 -12 -2 -447 0 -461 1 -5 1 -14 0 -19 -3
-12 -2 -1567 0 -1581 1 -5 1 -14 0 -19 -3 -12 -2 -447 0 -461 1 -5 1 -14 0
-19 -3 -12 -2 -447 0 -461 1 -5 1 -14 0 -19 -3 -12 -2 -1567 0 -1581 1 -5 1
-14 0 -19 -3 -12 -2 -447 0 -461 1 -5 0 -14 -1 -20 -9 -41 3 -155 22 -194 21
-43 101 -107 119 -95 5 3 9 1 9 -5 0 -5 -10 -13 -22 -16 -35 -10 -88 -48 -88
-62 0 -7 -4 -13 -9 -13 -8 0 -20 -33 -27 -75 -6 -36 -6 -556 0 -562 3 -3 1
-13 -3 -22 -5 -9 -9 -20 -10 -26 -1 -6 -67 -10 -179 -10 l-177 0 -1 3503 c-1
1927 -4 3505 -6 3507 -3 3 -128 -211 -233 -400 -17 -30 -36 -60 -43 -67 -7 -7
-12 -16 -12 -21 0 -4 -22 -46 -50 -93 -27 -47 -50 -87 -50 -90 0 -2 -11 -23
-26 -45 -14 -22 -34 -57 -46 -77 -11 -20 -34 -59 -50 -87 -16 -27 -32 -58 -35
-67 -3 -10 -9 -18 -14 -18 -5 0 -9 -4 -9 -9 0 -5 -73 -137 -163 -293 -90 -155
-169 -297 -176 -315 -7 -18 -11 -51 -9 -75 7 -67 11 -76 53 -120 l20 -21 -30
8 c-16 4 -34 7 -40 7 -71 -7 -114 -27 -150 -72 -27 -33 -105 -167 -105 -180 0
-5 -4 -10 -10 -10 -5 0 -10 -4 -10 -9 0 -5 -27 -55 -60 -111 -33 -56 -60 -103
-60 -106 0 -2 -18 -33 -40 -69 -22 -36 -40 -70 -40 -75 0 -6 -4 -10 -8 -10 -4
0 -13 -12 -19 -27 -7 -16 -25 -50 -42 -78 -17 -27 -34 -57 -38 -65 -4 -8 -32
-58 -63 -110 -31 -52 -59 -102 -63 -110 -4 -8 -15 -28 -25 -45 -10 -16 -30
-50 -44 -75 -24 -42 -199 -348 -310 -540 -26 -47 -53 -92 -58 -100 -5 -8 -18
-31 -28 -50 -40 -75 -57 -105 -69 -118 -7 -7 -13 -20 -13 -28 0 -8 -4 -14 -10
-14 -5 0 -10 -4 -10 -9 0 -5 -31 -64 -70 -130 -38 -67 -70 -126 -70 -131 0 -6
-4 -10 -10 -10 -5 0 -10 -4 -10 -8 0 -5 -47 -90 -105 -190 -57 -100 -103 -183
-102 -183 1 -1 100 -2 219 -3 l217 -2 22 46 c12 25 25 47 28 50 5 4 219 373
306 529 11 20 37 64 58 99 20 35 37 65 37 67 0 1 17 32 38 66 22 35 53 89 69
119 17 30 176 307 353 615 178 308 332 576 342 595 29 50 81 142 95 165 44 73
52 137 24 200 -11 25 -27 48 -35 51 -24 9 -10 22 19 17 14 -3 46 -2 71 2 38 5
56 16 95 55 27 27 49 56 49 65 0 8 4 15 8 15 4 0 13 12 19 28 7 15 24 47 39
72 15 25 35 59 44 75 30 52 62 105 63 105 1 0 1 -218 0 -485 l-2 -485 -41 -75
c-22 -41 -48 -89 -58 -107 -9 -18 -20 -35 -25 -36 -4 -2 -5 -7 -2 -12 3 -4 -2
-13 -10 -20 -8 -7 -15 -16 -15 -20 0 -4 -45 -89 -100 -189 -55 -100 -100 -186
-100 -191 0 -6 -3 -10 -7 -10 -5 0 -17 -19 -28 -43 -11 -23 -29 -58 -41 -77
-19 -33 -81 -145 -128 -235 -12 -22 -24 -41 -28 -43 -5 -2 -8 -9 -8 -16 0 -6
-11 -28 -25 -49 -14 -20 -23 -37 -19 -37 4 0 1 -8 -8 -17 -8 -10 -29 -47 -48
-83 -18 -36 -36 -67 -39 -70 -3 -3 -19 -32 -36 -65 -16 -33 -42 -82 -57 -108
-16 -27 -43 -76 -62 -110 -18 -34 -48 -89 -66 -122 -18 -33 -46 -85 -63 -115
-57 -103 -86 -155 -122 -225 -21 -38 -41 -74 -45 -80 -4 -5 -25 -44 -47 -85
-22 -41 -51 -93 -63 -115 -13 -22 -38 -69 -58 -105 -19 -36 -52 -96 -73 -133
-56 -98 -64 -137 -47 -218 2 -9 16 -33 31 -52 l27 -36 -48 4 c-62 6 -139 -30
-166 -77 -11 -18 -22 -35 -25 -38 -3 -3 -19 -32 -36 -65 -16 -33 -32 -62 -35
-65 -3 -3 -13 -20 -22 -38 -23 -44 -97 -178 -121 -222 -11 -19 -40 -73 -65
-120 -25 -47 -49 -86 -54 -88 -4 -2 -8 -11 -8 -21 0 -9 -4 -21 -9 -27 -12 -11
-76 -126 -97 -174 -9 -19 -19 -37 -23 -40 -4 -3 -17 -25 -30 -50 -12 -25 -30
-58 -40 -75 -21 -36 -97 -175 -125 -230 -12 -22 -23 -42 -26 -45 -3 -3 -16
-27 -30 -55 -14 -27 -27 -52 -30 -55 -3 -3 -15 -23 -26 -45 -74 -140 -97 -181
-105 -190 -10 -10 -679 -15 -679 -5 0 3 10 21 22 40 11 19 30 51 41 70 11 19
40 71 65 115 25 44 49 81 53 83 5 2 9 8 9 14 0 10 40 82 101 183 16 28 34 62
40 78 6 15 14 27 18 27 4 0 13 16 21 35 8 19 17 35 22 35 4 0 8 4 8 10 0 5 20
43 44 84 24 41 47 84 51 95 3 12 10 21 15 21 4 0 10 8 13 17 4 10 20 41 37 68
17 28 33 58 37 67 3 10 10 18 15 18 5 0 7 4 3 9 -3 5 0 16 7 23 13 13 17 21
60 97 12 20 29 50 39 66 11 17 22 37 26 45 3 8 25 47 48 85 23 39 68 117 101
175 32 58 61 107 65 110 4 3 14 21 23 40 9 19 25 51 37 70 27 44 132 228 147
257 l12 22 -217 0 -218 1 -26 -44 c-15 -23 -72 -124 -128 -222 -57 -98 -107
-186 -112 -194 -51 -84 -179 -314 -179 -321 0 -5 -4 -9 -10 -9 -5 0 -10 -6
-10 -14 0 -8 -6 -21 -13 -28 -7 -7 -25 -37 -41 -67 -37 -71 -50 -95 -56 -101
-3 -3 -12 -18 -20 -35 -8 -16 -17 -32 -20 -35 -5 -5 -25 -41 -57 -100 -10 -19
-20 -37 -23 -40 -3 -3 -30 -48 -59 -100 -62 -109 -64 -112 -161 -280 -64 -110
-109 -190 -144 -255 -6 -11 -13 -22 -16 -25 -5 -5 -14 -21 -58 -99 -14 -25
-75 -134 -137 -241 -62 -107 -117 -204 -123 -215 l-11 -21 780 1 780 0 27 50
c15 28 44 79 64 115 19 36 57 106 84 155 26 50 51 92 55 95 4 3 11 18 14 33 4
15 11 27 15 27 5 0 12 10 16 23 4 12 9 24 13 27 6 5 22 35 90 165 14 28 28 52
31 55 3 3 17 28 31 55 14 28 39 75 56 105 17 30 55 100 85 155 30 55 78 141
105 190 46 82 117 214 160 297 10 18 20 35 23 38 3 3 19 32 35 65 17 33 33 62
36 65 3 3 25 43 48 90 31 64 41 95 40 125 -3 46 -33 113 -54 122 -30 11 -14
19 31 17 56 -3 121 20 152 55 12 14 38 55 57 91 20 36 40 72 45 80 12 19 202
367 218 400 7 14 20 39 30 55 10 17 34 59 54 95 19 36 45 83 58 105 12 22 32
58 43 80 11 22 29 52 39 68 11 15 17 27 14 27 -4 0 5 18 19 40 14 22 25 44 25
50 0 5 5 10 10 10 6 0 10 9 10 20 0 11 3 20 8 20 4 0 12 10 18 23 12 25 86
162 117 217 11 19 32 58 47 85 53 99 104 191 137 249 18 32 40 72 49 90 8 17
30 58 49 91 18 33 48 88 66 123 18 34 34 61 36 58 2 -2 5 -948 6 -2103 l2
-2098 555 -1 c378 0 558 3 565 10 6 6 9 27 7 46 -1 19 -2 67 -2 105 1 39 1 76
0 83 0 22 -1 42 -1 77 0 19 0 50 0 68 -1 17 0 43 0 57 1 14 1 32 1 40 0 8 0
35 0 60 1 70 1 163 0 205 -1 8 -1 31 -1 50 0 19 0 50 0 68 -1 17 0 43 1 57 3
45 -8 107 -24 139 -19 36 -70 77 -108 86 -16 4 -25 11 -22 17 3 5 8 7 11 4 14
-14 95 48 122 94 11 20 25 118 22 158 -1 18 -2 32 -1 82 1 70 1 163 0 205 -1
8 -1 31 -1 50 0 19 0 50 0 68 -1 17 0 43 0 57 1 14 1 32 1 40 0 8 0 35 0 60 1
70 1 163 0 205 -1 8 -1 31 -1 50 0 19 0 50 0 68 -1 17 0 43 0 57 1 14 1 32 1
40 0 8 0 35 0 60 0 39 0 67 0 178 0 9 0 46 1 82 0 36 0 71 -1 78 0 27 -1 44
-1 77 0 19 0 50 0 68 -1 17 0 43 0 57 1 14 1 32 1 40 0 8 0 35 0 60 1 70 1
163 0 205 -1 8 -1 31 -1 50 0 19 0 50 0 68 -1 17 0 43 0 57 1 14 1 32 1 40 0
8 0 35 0 60 1 70 1 163 0 205 -1 8 -1 31 -1 50 0 19 0 50 0 68 -1 17 0 43 0
57 1 14 1 32 1 40 0 8 0 35 0 60 1 70 1 163 0 205 -1 8 -1 31 -1 50 0 19 0 50
0 68 -1 17 0 43 0 57 1 14 1 32 1 40 0 8 0 35 0 60 1 70 1 163 0 205 -1 8 -1
31 -1 50 0 19 0 50 0 68 -1 17 0 43 0 57 1 14 1 32 1 40 0 8 0 35 0 60 0 39 0
67 0 178 0 9 0 46 1 82 0 36 0 71 -1 78 0 27 -1 44 -1 77 0 19 0 50 0 68 -1
17 0 43 0 57 1 14 1 32 1 40 0 8 0 35 0 60 1 70 1 163 0 205 -1 8 -1 31 -1 50
0 19 0 50 0 68 -1 17 0 43 0 57 1 14 1 32 1 40 0 8 0 35 0 60 1 70 1 163 0
205 -1 8 -1 31 -1 50 0 19 0 50 0 68 -1 17 0 43 0 57 1 14 1 32 1 40 0 8 0 35
0 60 1 70 1 163 0 205 -1 8 -1 31 -1 50 0 19 0 50 0 68 -1 17 0 43 0 57 1 14
1 32 1 40 0 8 0 35 0 60 1 70 1 163 0 205 -1 8 -1 31 -1 50 0 19 0 50 0 68 -1
17 0 43 0 57 1 14 1 32 1 40 0 8 0 35 0 60 0 39 0 67 0 178 0 9 0 46 1 82 0
36 0 71 -1 78 0 27 -1 44 -1 77 0 19 0 50 0 68 -1 17 0 43 0 57 1 14 1 32 1
40 0 8 0 35 0 60 1 70 1 163 0 205 -1 8 -1 31 -1 50 0 19 0 50 0 68 -1 17 0
43 0 57 1 14 1 32 1 40 0 8 0 35 0 60 1 70 1 163 0 205 -1 8 -1 31 -1 50 0 19
0 50 0 68 -1 17 0 43 0 57 1 14 1 32 1 40 0 8 0 35 0 60 1 70 1 163 0 205 -1
8 -1 31 -1 50 0 19 0 50 0 68 -1 17 0 43 0 57 1 14 1 32 1 40 0 8 0 35 0 60 1
51 1 151 0 178 0 9 0 26 0 37 2 33 -2 75 -5 75 -2 0 -58 -91 -126 -201z"/>
</g>
</svg>
