<svg xmlns="http://www.w3.org/2000/svg" width="32" height="32" viewBox="0 0 31.7 31.7"><path d="M16.9 0.4c-0.9-0.6-2-0.6-2.8 0L1.5 9.2c-0.7 0.5-1.1 1.2-1.1 2.1v9.4c0 0.8 0.4 1.6 1.1 2.1l12.8 8.5c0.8 0.6 1.9 0.6 2.8 0l13-8.6c0.7-0.5 1.1-1.2 1.1-2.1v-9.3c0-0.8-0.4-1.6-1.1-2.1L16.9 0.4zM26.6 10.6l-4.8 3.2 -4.5-3.3L17.3 4.1 26.6 10.6zM14 4.1v6.3l-4.6 3.2 -4.6-3.1L14 4.1zM3.5 13.7l3 2 -3 2.1V13.7zM14.1 27.2l-9.3-6.3 4.7-3.3 4.7 3.1V27.2zM12.3 15.7l3-2.1 3.5 2.3 -3.1 2.1L12.3 15.7zM17.4 27.2V20.8l4.5-3 4.8 3.2L17.4 27.2zM28 17.9l-3.2-2.1 3.2-2.1V17.9z"/></svg>